<svg width="115" height="121" viewBox="0 0 115 121" fill="none" xmlns="http://www.w3.org/2000/svg">
<path d="M88.2352 5.90572C94.5945 12.071 93.293 26.3314 100.1 34.2837C106.907 42.3253 110.503 44.0272 113.1 52.7837C115.697 61.4508 116.1 73.2837 111.024 82.1999C105.948 91.1161 100.967 89.7782 92.1001 97.2837C83.2329 104.7 72.2027 116.434 64.5895 114.557C56.9763 112.77 50.4379 98.9207 41.7499 91.3258C32.9723 83.8203 21.9556 82.6587 13.805 77.0296C5.56478 71.4004 7.18961 59.9698 7.10004 49.7837C7.01048 39.687 5.20651 30.8348 13.4467 25.295C21.6869 19.7552 34.3225 20.5193 43.1 15.7837C51.9672 11.1374 57.8077 3.69618 65.6 1.28368C73.3924 -1.21816 81.9655 -0.259543 88.2352 5.90572Z" fill="#E21D48"/>
<path d="M55.5 31.5636C66.6 38.2636 81.8 34.1636 89 50.0636C96.2 66.0636 87.1 84.9837 76 91.4837C65 97.9837 65.6 98.1 45.5 95C25.5 91.8 8.2176 92.1837 2.5176 85.5837C-3.1824 79.0837 2.2176 62.1837 4.8176 47.8837C7.5176 33.5837 7.2176 21.8837 12.9176 15.2837C18.6176 8.68369 30.3176 7.08369 40.5176 8.58369C50.7176 9.98369 44.4 24.9636 55.5 31.5636Z" fill="#4F46E5"/>
<path d="M73.6 37.2837C81.3156 39.3329 93.3866 46.2366 95.6 58.2837C97.8768 70.3308 91.8059 88.3426 86.2405 95.546C80.7384 102.812 67.5 102 57.5 102C47 102 30.8756 108.598 25.5 104.5C20.0612 100.402 21 91.5 19.5 84.5C18 77.5 8.38908 70.6446 6.55505 62.9444C4.72102 55.2442 8.57881 45.9294 15.4722 43.756C22.4289 41.5825 36.8429 46.1499 48.1 44.7837C59.2939 43.4175 65.8845 35.2965 73.6 37.2837Z" fill="#FBBF24"/>
<path d="M30.232 91.624C30.232 91.624 30.2033 91.624 30.146 91.624C29.2287 91.624 28.3113 91.4807 27.394 91.194C26.4767 90.9073 25.7313 90.076 25.158 88.7C24.5847 87.2667 24.298 84.8587 24.298 81.476C24.298 79.1253 24.6133 76.2587 25.244 72.876C25.8747 69.4933 26.6773 65.8527 27.652 61.954C28.684 57.998 29.802 54.0707 31.006 50.172C32.21 46.2733 33.3567 42.6327 34.446 39.25C35.5927 35.8673 36.596 32.972 37.456 30.564C38.3733 28.156 39.0327 26.5507 39.434 25.748C39.8353 24.7733 40.4947 23.942 41.412 23.254C42.3867 22.5087 43.39 22.136 44.422 22.136C46.5433 22.136 47.9193 22.7093 48.55 23.856C49.1807 24.9453 49.496 26.1493 49.496 27.468C49.496 28.6147 49.0087 31.2807 48.034 35.466C47.0593 39.594 45.5113 45.6713 43.39 53.698C48.206 53.354 53.1367 52.8953 58.182 52.322C63.2847 51.7487 67.7853 51.204 71.684 50.688C72.6013 47.248 73.49 44.066 74.35 41.142C75.21 38.1607 75.9553 35.6667 76.586 33.66C77.2167 31.596 77.6467 30.22 77.876 29.532C78.7933 27.4107 79.768 25.9487 80.8 25.146C81.8893 24.3433 83.0073 23.942 84.154 23.942C85.6447 23.942 86.906 24.4293 87.938 25.404C89.0273 26.3213 89.572 27.8693 89.572 30.048C89.572 31.424 89.1993 33.9753 88.454 37.702C87.7087 41.4287 86.7913 45.6427 85.702 50.344C86.562 50.9173 87.3073 51.6053 87.938 52.408C88.626 53.2107 88.97 53.956 88.97 54.644C88.97 55.5613 88.7407 56.45 88.282 57.31C87.8807 58.1127 86.9633 58.8293 85.53 59.46C85.1287 59.632 84.412 59.8327 83.38 60.062C82.2907 64.4767 81.23 68.7193 80.198 72.79C79.2233 76.8033 78.392 80.2433 77.704 83.11C77.016 85.9193 76.6147 87.7253 76.5 88.528C76.156 90.6493 75.5253 92.4267 74.608 93.86C73.6907 95.3507 72.286 96.096 70.394 96.096C68.9607 96.096 67.7853 95.4367 66.868 94.118C65.9507 92.7993 65.492 90.1047 65.492 86.034C65.492 82.9953 65.8073 79.4693 66.438 75.456C67.0687 71.3853 67.8427 67.2287 68.76 62.986C64.46 63.674 59.816 64.276 54.828 64.792C49.84 65.2507 44.9667 65.4513 40.208 65.394C38.5453 71.8727 37.1693 77.0327 36.08 80.874C35.048 84.7153 34.102 87.4673 33.242 89.13C32.382 90.7927 31.3787 91.624 30.232 91.624Z" fill="white"/>
</svg>
